<?xml version="1.0" encoding="UTF-8"?><svg id="Capa_2" xmlns="http://www.w3.org/2000/svg" viewBox="0 0 61.74 34.87"><defs><style>.cls-1{fill:#1d1d1b;stroke-width:0px;}</style></defs><g id="Capa_1-2"><path class="cls-1" d="m53.63,16.91v-.32c4.78-.72,7.02-3.95,7.02-7.95,0-5.52-4.11-8.64-10.35-8.64h-18.3v1.26h.61c2.21,0,3.05.67,3.05,3.22l.03,9.11c0,.65.08,1.18.23,1.6.37,1.08,1.18,1.49,2.28,1.49v.17c-1.11,0-1.93.42-2.29,1.51-.15.42-.22.94-.22,1.58l-.03,10.48c0,2.55-.84,3.22-3.05,3.22h-.61v1.23h.44c.23,0,.45,0,.66-.03h17.72c6.66,0,10.92-3.58,10.92-9.62,0-4.47-2.75-7.43-8.11-8.31Zm-16.62-3.14l-.03-9.07c0-.47-.03-.91-.11-1.32h13.12c4.73,0,6.97,1.88,6.97,5.93,0,4.58-2.55,5.88-7.28,5.88h-12.44c-.16-.33-.23-.79-.23-1.42Zm13.5,17.69h-13.62c.06-.39.09-.81.09-1.26l.03-10.43c0-.62.06-1.08.22-1.41h13.28c4.84,0,7.49,2.03,7.49,6.5s-2.55,6.6-7.49,6.6Z"/><path class="cls-1" d="m8.11,16.91v-.32c-4.78-.72-7.02-3.95-7.02-7.95C1.09,3.12,5.2,0,11.44,0h18.3v1.26h-.61c-2.21,0-3.05.67-3.05,3.22l-.03,9.11c0,.65-.08,1.18-.23,1.6-.37,1.08-1.18,1.49-2.28,1.49v.17c1.11,0,1.93.42,2.29,1.51.15.42.22.94.22,1.58l.03,10.48c0,2.55.84,3.22,3.05,3.22h.61v1.23h-.44c-.23,0-.45,0-.66-.03H10.92c-6.66,0-10.92-3.58-10.92-9.62,0-4.47,2.75-7.43,8.11-8.31Zm16.62-3.14l.03-9.07c0-.47.03-.91.11-1.32h-13.12c-4.73,0-6.97,1.88-6.97,5.93,0,4.58,2.55,5.88,7.28,5.88h12.44c.16-.33.23-.79.23-1.42Zm-13.5,17.69h13.62c-.06-.39-.09-.81-.09-1.26l-.03-10.43c0-.62-.06-1.08-.22-1.41h-13.28c-4.84,0-7.49,2.03-7.49,6.5s2.55,6.6,7.49,6.6Z"/></g></svg>