<?xml version="1.0" encoding="UTF-8"?><svg id="Capa_2" xmlns="http://www.w3.org/2000/svg" viewBox="0 0 174.45 63.61"><defs><style>.cls-1{fill:#1d1d1b;stroke-width:0px;}</style></defs><g id="Capa_1-2"><path class="cls-1" d="m0,35.36V.52h18.3c6.24,0,10.35,3.12,10.35,8.63,0,4-2.24,7.02-7.02,7.75v.31c5.36.88,8.11,4.06,8.11,8.53,0,6.03-4.26,9.62-10.92,9.62H0ZM3.69,15.71h13.99c4.73,0,7.28-1.87,7.28-5.88s-2.24-5.93-6.97-5.93H3.69v11.8Zm0,16.28h14.82c4.94,0,7.49-2.03,7.49-6.6s-2.65-6.5-7.49-6.5H3.69v13.1Z"/><path class="cls-1" d="m32.86,17.94C32.86,7.07,40.09,0,50.44,0s17.68,7.07,17.68,17.94-7.23,17.94-17.68,17.94-17.58-7.07-17.58-17.94Zm31.36,0c0-9.46-4.94-14.35-13.78-14.35s-13.68,4.89-13.68,14.35,4.89,14.35,13.68,14.35,13.78-4.89,13.78-14.35Z"/><path class="cls-1" d="m73.06,35.36V.52h17.06c7.28,0,12.22,3.69,12.22,10.09,0,5.88-4.32,9.52-10.76,9.67v.26c2.29.62,3.59,2.13,4.78,4.16l6.55,10.66h-4.26l-6.19-10.09c-1.77-2.91-3.59-4.16-8.22-4.16h-7.49v14.25h-3.69Zm3.69-17.21h13.31c5.51,0,8.42-2.18,8.42-7.12s-2.91-7.12-8.42-7.12h-13.31v14.25Z"/><path class="cls-1" d="m105.87,17.94c0-10.87,7.18-17.94,17.37-17.94,9,0,15.81,5.04,15.81,12.95v.62h-4v-.62c0-5.93-4.11-9.36-11.75-9.36-8.68,0-13.52,4.89-13.52,14.35s4.84,14.35,13.52,14.35c7.64,0,11.75-3.43,11.75-9.36v-.62h4v.62c0,7.9-6.76,12.95-15.81,12.95-10.19,0-17.37-7.07-17.37-17.94Z"/><path class="cls-1" d="m143.99,35.36V.52h3.69v15.6h22.41V.52h3.69v34.84h-3.69v-15.86h-22.41v15.86h-3.69Z"/><path class="cls-1" d="m128.11,63.61c-1.44,0-2.06-.74-2.06-2.12v-4.41c0-.78-.22-.98-1-.98h-.8v-.76h.8c.78,0,1-.2,1-.98v-4.41c0-1.38.62-2.12,2.06-2.12h.2v.56h-.28c-1,0-1.38.3-1.38,1.46v4.43c0,1.04-.44,1.4-1.14,1.4v.08c.7,0,1.14.36,1.14,1.4v4.43c0,1.16.38,1.46,1.38,1.46h.28v.56h-.2Z"/><path class="cls-1" d="m136.46,47.83h-6.43v.56h.28c.3,0,.53.03.73.1h5.42c4.45,0,6.75,2.68,6.75,7.23s-2.31,7.23-6.75,7.23h-5.44c-.19.07-.42.09-.7.09h-.28v.57h6.43c4.59,0,7.48-3.11,7.48-7.89s-2.89-7.89-7.48-7.89Z"/><path class="cls-1" d="m145.96,63.61v-15.77h11.28v.66h-10.57v6.85h10.22v.66h-10.22v6.94h10.57v.66h-11.28Z"/><path class="cls-1" d="m166.38,63.61l-7.13-15.77h.78l6.8,15.04h.07l6.8-15.04h.75l-7.13,15.77h-.94Z"/><path class="cls-1" d="m133.29,55.34c-.79,0-1.01-.2-1.01-.98v-4.41c0-.63-.12-1.11-.39-1.45-.33-.44-.87-.66-1.67-.66h-.19v.56h.28c.3,0,.53.03.73.1.47.15.65.54.65,1.35v4.44c0,1.03.44,1.39,1.13,1.39v.08c-.69,0-1.13.36-1.13,1.4v4.43c0,.83-.19,1.22-.68,1.36-.19.07-.42.09-.7.09h-.28v.57h.19c.79,0,1.34-.23,1.67-.66.27-.36.39-.85.39-1.46v-4.41c0-.78.22-.97,1.01-.97h.79v-.76h-.79Z"/></g></svg>